<?xml version="1.0" encoding="utf-8"?>
<!-- Generator: Adobe Illustrator 18.0.0, SVG Export Plug-In . SVG Version: 6.00 Build 0)  -->
<!DOCTYPE svg PUBLIC "-//W3C//DTD SVG 1.1//EN" "http://www.w3.org/Graphics/SVG/1.1/DTD/svg11.dtd">
<svg version="1.1" id="レイヤー_1" xmlns="http://www.w3.org/2000/svg" xmlns:xlink="http://www.w3.org/1999/xlink" x="0px"
	 y="0px" viewBox="0 0 122 20" enable-background="new 0 0 122 20" xml:space="preserve">
<g>
	<g>
		<g>
			<g>
				<path fill="#FFFFFF" d="M70.4651413,1.4922274v16.4826603c0.0012283,0,0.0043259,0.7185383,0.7182541,0.7185383h1.9646378
					c0.7163849-0.0046444,0.7136078-0.7185383,0.7136078-0.7185383V1.4922274c0.0027771,0,0-0.7185372-0.7136078-0.7185372
					h-1.9646378C70.4663696,0.7736902,70.4663696,1.4922274,70.4651413,1.4922274z"/>
				<path fill="#FFFFFF" d="M104.4331436,17.9748878l0.001236-7.2662487c0-3.2518039-2.8605957-5.2454391-4.9480362-5.2454391
					c-2.0766602,0-3.8423233,0.5398827-5.200737,1.6400871C94.1640701,7.2032456,93.8249893,7.3069,93.8249893,7.0107217
					l-0.0061569-0.7497191c0,0,0-0.7145247-0.7151566-0.7145247h-1.6937637c0,0-0.7151566,0-0.7151566,0.7145247
					l-0.0024643,11.7138853c0.0024643,0.7185383,0.7176208,0.7185383,0.7176208,0.7185383l1.6974869-0.0015469
					c0.7114334-0.0030975,0.7114334-0.7169914,0.7071075-0.7169914l0.0024567-5.7248859
					c0.0018692-1.5814848,1.0687408-4.2844005,4.5802994-4.2844005c2.5082474,0,2.9087067,1.72646,2.9087067,2.7430377
					l0.0024643,7.2662487c0,0.7185383,0.7170258,0.7138939,0.7170258,0.7138939l1.6956253,0.0046444
					C103.7210846,18.6934261,104.4368439,18.6934261,104.4331436,17.9748878z"/>
				<path fill="#FFFFFF" d="M75.7383499,9.1722088c-0.0049286,0.0246744-0.0061569,0.0493479-0.0061569,0.0734215"/>
				<path fill="#FFFFFF" d="M113.3709488,8.0306816c2.4456253,0,4.4176865,1.6795778,4.4247589,4.2890453
					c0.005249,2.6899643-1.974205,4.4161415-4.4198303,4.4161415c-2.4474945,0-4.3118591-1.919301-4.3118591-4.4507036
					C109.0606079,9.7812157,111.0897522,8.0306816,113.3709488,8.0306816z M117.4575806,17.5735092
					c0.2079391-0.1638393,0.4220734-0.0293179,0.4183426,0.3470726c0,0.054306,0,0.7728443,0.7170181,0.7728443h1.6953125
					c0,0,0.7117462,0,0.7117462-0.7185383V1.4922274c0-0.7185372-0.7117462-0.714209-0.7117462-0.714209h-1.6953125
					c0,0-0.7170181-0.0043282-0.7219467,0.714209l0.0024643,5.2056661c-0.0049286,0.3763919-0.2048416,0.505352-0.4121857,0.347074
					c-4.6129608-3.5347137-11.6247025,0-11.61203,5.2340364C105.8603287,18.1337681,112.776123,21.2868462,117.4575806,17.5735092z"
					/>
				<path fill="#FFFFFF" d="M79.1647644,13.5815582c1.616333-0.8552055,5.6070557-0.7718973,5.9760513-0.7225494
					c0.1863327,0.0249891,0.455658,0.159194,0.4522781,0.421442c-0.0123596,3.450489-4.7249908,3.9151173-6.5295181,2.7273083
					c-0.3769913-0.2483482-0.6151657-0.6941805-0.6308975-1.0906019
					C78.419693,14.3309612,78.6205597,13.8666477,79.1647644,13.5815582z M77.0656128,18.2229214
					c2.2136154,1.5768394,6.3308258,1.194603,8.2059937-0.4454861c0.227684-0.1993141,0.4911652-0.0357933,0.5645905,0.1974525
					c0.184494,0.5766258,0.4448776,0.7138939,1.0196686,0.7185383c0.2631683,0,1.1726837,0,1.1726837,0
					c0.7095947,0,0.7142029-0.7185383,0.7095947-0.7185383l0.0036926-7.4143515
					c0.0009155-4.0310931-3.7589798-5.1016641-6.6424179-5.1016641c-3.2234039,0.0043278-5.3305817,1.227901-6.3585968,3.7179494
					c-0.1042557,0.2529917,0.196846,0.5568762,0.4541321,0.5568762l2.1997452,0.0074272
					c0.3763962,0,0.753418-0.3190203,0.8657303-0.5047522c0.5719757-0.9576283,1.496315-1.3142743,3.2314224-1.3142743
					c1.9189911,0,2.4240265,0.4263711,3.0444641,1.3142743c0.3998337,0.5695162-0.1397629,1.1637373-0.4470291,1.1791544
					c-4.621933,0.2375746-5.4061813,0.4053936-6.6655807,0.6093225c-1.8230438,0.2869215-3.2162933,2.051672-3.2033463,3.8923073
					C75.2203598,16.1206703,75.784317,17.3158703,77.0656128,18.2229214z M61.2462959,19.1549606
					c5.7116203,0,8.1038551-3.7043972,8.0992393-6.8448067c-0.0034103-3.0052881-2.4036713-6.8469539-8.1479874-6.8469539
					c-5.7356911-0.0043278-8.1338081,3.8305764-8.1338081,6.8515954
					C53.0637398,15.5110312,55.4865303,19.1549606,61.2462959,19.1549606z M61.2462959,16.7019367
					c-3.3391266,0-4.8681335-2.4743462-4.8681335-4.3717213c0-1.8946266,1.5999641-4.397028,4.8206177-4.397028
					c3.2200203,0,4.831707,2.4869843,4.831707,4.381608C66.0304871,14.2319183,64.4539642,16.7019367,61.2462959,16.7019367z
					 M39.340168,11.3426371c-0.0015488,1.6650772,0.0030975,5.4521513,0.0030975,6.6272917
					c0,0.7173367-0.7169914,0.7139263-0.7169914,0.7139263h-1.602459c0,0-0.7180939,0.0095711-0.7231827-0.7139263
					L36.30373,1.4878992c0-0.714209,0.7139244-0.714209,0.7139244-0.714209h10.3935471
					c2.351387,0,5.0322533,1.6209736,5.0322533,4.9289169c0,1.6086211-0.9209175,3.0932102-2.2162361,3.998395
					c-0.1042862,0.069725-0.1843414,0.2101212-0.1339188,0.2486639c0.8865433,0.6985073,0.8971901,1.2692556,1.209549,2.4681549
					c0.5622787,2.1707439,0.6290932,4.0601263,1.4838257,5.8791533c0.0600281,0.1252613-0.087162,0.3868809-0.2816772,0.3868809
					l-2.0701523,0.0049267c-0.6798363,0-1.0519028-0.3223991-1.1808624-0.718853
					c-0.7435265-2.2707014-0.2310982-4.4722805-1.7784615-6.6272917c-0.3632812-0.5059834-1.1660423-0.7142086-2.1039581-0.7142086
					h-5.3146896C40.055481,10.6284285,39.3432655,10.6284285,39.340168,11.3426371z M46.3987923,8.2509756
					c0,0.0030642,2.7888489,0.0077085,2.7888489-2.5483685c0-2.5545597-2.7888489-2.5594883-2.7888489-2.5594883h-6.3419189
					c-0.7136078,0-0.7136078,0.7188532-0.7136078,0.7188532s-0.0046463,2.7951677,0,3.6732123
					c0,0.7188554,0.7534142,0.7188554,0.7136078,0.7188554L46.3987923,8.2509756z"/>
			</g>
			<g>
				<path fill="#FFFFFF" d="M29.3327427,8.6378555H11.7890825c-2.601285,0-4.4309578,1.9998293-4.4309578,4.3479624
					c0,2.3432074,1.9392042,4.3967123,4.4309578,4.3967123c2.568903,0,21.4541359,0,21.4541359,0v1.3013248
					c0,0-18.2191391,0-21.4757099,0c-3.4562073,0-5.7807446-2.6452312-5.7807446-5.6872301
					c0-3.0426302,2.3350248-5.6743078,5.7714853-5.6743078c4.6054125,0,16.223793,0,16.223793,0l0,0V5.5464778H5.986763v13.1373768
					H4.5424223V4.2309709h24.7903214V8.6378555z"/>
				<path fill="#FFFFFF" d="M10.43993,15.2380095h22.8032875V13.925252H11.7890825v-1.7776718l0,0c0,0,12.7957048,0,16.2285995,0
					c3.4364281,0,5.7712975-2.6298447,5.7712975-5.6733918c0-3.0429153-2.3951797-5.7004981-5.8526192-5.7004981
					c-3.4569321,0-26.9363594,0-26.9363594,0v17.9101639h1.4460466V2.0910611c0,0,23.0428524,0,25.5359955,0
					c2.4979153,0,4.4468479,2.0519567,4.4468479,4.3967118c0,2.3450708-1.8438873,4.3442688-4.4468479,4.3442688
					c-2.6006851,0-17.5421124,0-17.5421124,0V15.2380095z"/>
			</g>
		</g>
	</g>
</g>
</svg>
